<svg width="39" height="29" viewBox="0 0 39 29" fill="none" xmlns="http://www.w3.org/2000/svg">
<path d="M37.375 15.7085H1.625C0.727997 15.7085 0 14.9805 0 14.0835C0 13.1865 0.727997 12.4585 1.625 12.4585H37.375C38.272 12.4585 39 13.1865 39 14.0835C39 14.9805 38.272 15.7085 37.375 15.7085Z" fill="#757575"/>
<path d="M37.375 3.25H1.625C0.727997 3.25 0 2.522 0 1.625C0 0.727997 0.727997 0 1.625 0H37.375C38.272 0 39 0.727997 39 1.625C39 2.522 38.272 3.25 37.375 3.25Z" fill="#757575"/>
<path d="M37.375 28.1665H1.625C0.727997 28.1665 0 27.4385 0 26.5415C0 25.6445 0.727997 24.9165 1.625 24.9165H37.375C38.272 24.9165 39 25.6445 39 26.5415C39 27.4385 38.272 28.1665 37.375 28.1665Z" fill="#757575"/>
</svg>
